# xmcd
#
# Track frame offsets: 
#        150
#        6707
#        26217
#        47526
#        65812
#        79577
#        93536
#        103744
#        116990
#        135353
#        150724
#        159779
#
# Disc length: 2400 seconds
#
# Revision: 0
# Processed by: cddbd v1.5.2PL0 Copyright (c) Steve Scherf et al.
# Submitted via: ExactAudioCopy v0.99pb5
#
DISCID=9c095e0c
DTITLE=Mini Mansions - Mini Mansions
DYEAR=2010
DGENRE=Rock
TTITLE0=Vignette #1
TTITLE1=The Room Outside
TTITLE2=Crime of the Season
TTITLE3=Monk
TTITLE4=Wünderbars
TTITLE5=Seven Sons
TTITLE6=Vignette #2
TTITLE7=Kiddie Hypnogogia
TTITLE8=Majik Marker
TTITLE9=Girls
TTITLE10=Vignette #3
TTITLE11=Thriller Escapade
EXTD=
EXTT0=
EXTT1=
EXTT2=
EXTT3=
EXTT4=
EXTT5=
EXTT6=
EXTT7=
EXTT8=
EXTT9=
EXTT10=
EXTT11=
PLAYORDER=
